<svg width="83" height="53" viewBox="0 0 83 53" fill="none" xmlns="http://www.w3.org/2000/svg">
<path d="M55.07 12.6516L53.69 9.89163C53.4866 9.48131 53.1753 9.13416 52.7894 8.88749C52.4036 8.64082 51.9578 8.50397 51.5 8.49163H46.5C46.0055 8.49222 45.5221 8.63828 45.11 8.91163L37.5 13.3216L32.5 11.8416L33.61 9.62163C33.758 9.32818 33.8467 9.00843 33.8711 8.68066C33.8954 8.35289 33.8548 8.02354 33.7517 7.71146C33.6486 7.39938 33.485 7.11069 33.2702 6.86191C33.0554 6.61314 32.7937 6.40915 32.5 6.26163L27.5 3.76163C27.0857 3.55046 26.6203 3.46004 26.157 3.50071C25.6937 3.54138 25.2512 3.7115 24.88 3.99163L19.5 7.41163" stroke="#616161" stroke-width="1.5" stroke-linecap="round" stroke-linejoin="round"/>
<path d="M75.5002 36.0818C76.2802 36.4718 79.5002 33.6318 80.2802 33.1718C80.6503 32.9524 80.9571 32.6408 81.1709 32.2676C81.3847 31.8943 81.4982 31.472 81.5002 31.0418V21.0418C81.4996 20.6536 81.4107 20.2706 81.2402 19.9218L76.7902 11.0318L78.7302 7.14178C78.9641 6.67146 79.0446 6.13961 78.9603 5.62114C78.876 5.10268 78.6311 4.62374 78.2602 4.25178L75.7602 1.74178C75.389 1.37021 74.9113 1.12341 74.3934 1.0356C73.8756 0.947798 73.3432 1.02335 72.8702 1.25178L67.8702 3.76178C67.6302 3.88178 64.4302 5.97178 64.2402 6.16178" stroke="#616161" stroke-width="1.5" stroke-linecap="round" stroke-linejoin="round"/>
<path d="M64.79 51.6815L69.36 49.0015C70.74 49.0015 71.5 47.4915 71.5 46.0715V43.9715L75.5 36.0815" stroke="#616161" stroke-width="1.5" stroke-linecap="round" stroke-linejoin="round"/>
<path d="M75.87 23.3215L71.42 14.4215L73.42 10.5315C73.6539 10.0612 73.7344 9.52938 73.6501 9.01091C73.5657 8.49245 73.3209 8.01351 72.95 7.64155L70.44 5.14155C70.0643 4.75972 69.5762 4.50813 69.0472 4.42356C68.5182 4.339 67.9761 4.4259 67.5 4.67155L62.5 7.17155C62.2595 7.29236 62.0401 7.45105 61.85 7.64155L57.13 12.3615L49.72 16.0715L48.33 13.3015C48.1227 12.8853 47.803 12.5354 47.4071 12.2915C47.0113 12.0476 46.555 11.9195 46.09 11.9215H41.09C40.5951 11.9191 40.1108 12.0654 39.7 12.3415L33.11 16.7315L27.2 15.2515L28.31 13.0415C28.6028 12.4468 28.6495 11.7605 28.4398 11.1316C28.2302 10.5027 27.7811 9.98168 27.19 9.68155L22.19 7.17155C21.7647 6.95337 21.2864 6.86012 20.8103 6.9026C20.3342 6.94507 19.8799 7.12153 19.5 7.41155L9.69 14.7915L4.89 17.1915C4.47264 17.3984 4.12135 17.7177 3.87575 18.1134C3.63016 18.5092 3.50001 18.9658 3.5 19.4315V24.4315C3.1717 24.4315 2.84661 24.4962 2.54329 24.6218C2.23998 24.7475 1.96438 24.9316 1.73223 25.1638C1.26339 25.6326 1 26.2685 1 26.9315V31.9315C1.00059 32.4261 1.14665 32.9095 1.42 33.3215L6.42 40.8415C6.63574 41.1615 6.92182 41.4279 7.25634 41.6203C7.59085 41.8126 7.96495 41.926 8.35 41.9515C8.73569 41.9748 9.12153 41.9084 9.47722 41.7574C9.83291 41.6065 10.1488 41.3751 10.4 41.0815L12.85 38.2215C12.9848 38.0668 13.099 37.8954 13.19 37.7115L14.05 35.9915C14.1114 36.0695 14.1782 36.1431 14.25 36.2115L16.75 38.7115C17.1211 39.0838 17.6002 39.3295 18.119 39.4139C18.6378 39.4983 19.17 39.417 19.64 39.1815L23.05 37.4915L26.05 40.4915V44.4915C26.0502 44.956 26.1794 45.4114 26.423 45.8068C26.6666 46.2023 27.0152 46.5224 27.43 46.7315L32.43 49.2315C32.7788 49.402 33.1618 49.4909 33.55 49.4915H46.08C46.4682 49.4909 46.8512 49.402 47.2 49.2315L52.2 46.7315C52.6815 46.4849 53.0733 46.0931 53.32 45.6115L54.32 43.7015L58.64 48.0315V49.4915C58.64 50.1572 58.9044 50.7957 59.3752 51.2664C59.8459 51.7371 60.4843 52.0015 61.15 52.0015H63.65C64.3087 51.991 64.9369 51.722 65.399 51.2524C65.8611 50.7828 66.1201 50.1504 66.12 49.4915V47.3915L68.5 40.2615C68.6476 39.8212 68.6697 39.3485 68.5637 38.8963C68.4578 38.4441 68.2279 38.0304 67.9 37.7015L64.17 33.9615L65.66 30.9615L66.26 32.7415C66.3587 33.0541 66.5194 33.3436 66.7324 33.5928C66.9454 33.8419 67.2065 34.0455 67.5 34.1915L72.5 36.7015C72.8803 36.8933 73.3032 36.9852 73.7288 36.9685C74.1544 36.9517 74.5687 36.827 74.9328 36.6059C75.2969 36.3849 75.5988 36.0748 75.8099 35.7049C76.0211 35.335 76.1347 34.9175 76.14 34.4915V24.4915C76.1436 24.0857 76.0511 23.6848 75.87 23.3215Z" stroke="#616161" stroke-width="1.5" stroke-linecap="round" stroke-linejoin="round"/>
<path d="M14.28 24.7816C15.4122 24.7816 16.33 23.8638 16.33 22.7316C16.33 21.5995 15.4122 20.6816 14.28 20.6816C13.1478 20.6816 12.23 21.5995 12.23 22.7316C12.23 23.8638 13.1478 24.7816 14.28 24.7816Z" fill="#99BD3D"/>
<path d="M38.57 43.9813C39.7022 43.9813 40.62 43.0635 40.62 41.9313C40.62 40.7992 39.7022 39.8813 38.57 39.8813C37.4378 39.8813 36.52 40.7992 36.52 41.9313C36.52 43.0635 37.4378 43.9813 38.57 43.9813Z" fill="#99BD3D"/>
<path d="M44.76 39.2216C45.8921 39.2216 46.81 38.3038 46.81 37.1716C46.81 36.0394 45.8921 35.1216 44.76 35.1216C43.6278 35.1216 42.71 36.0394 42.71 37.1716C42.71 38.3038 43.6278 39.2216 44.76 39.2216Z" fill="#99BD3D"/>
<path d="M9.42988 31.0316C10.5621 31.0316 11.4799 30.1138 11.4799 28.9816C11.4799 27.8495 10.5621 26.9316 9.42988 26.9316C8.2977 26.9316 7.37988 27.8495 7.37988 28.9816C7.37988 30.1138 8.2977 31.0316 9.42988 31.0316Z" fill="#99BD3D"/>
<path d="M24.01 33.0814C25.1421 33.0814 26.06 32.1636 26.06 31.0314C26.06 29.8993 25.1421 28.9814 24.01 28.9814C22.8778 28.9814 21.96 29.8993 21.96 31.0314C21.96 32.1636 22.8778 33.0814 24.01 33.0814Z" fill="#99BD3D"/>
<path d="M19.9001 26.8314C21.0323 26.8314 21.9501 25.9136 21.9501 24.7814C21.9501 23.6493 21.0323 22.7314 19.9001 22.7314C18.7679 22.7314 17.8501 23.6493 17.8501 24.7814C17.8501 25.9136 18.7679 26.8314 19.9001 26.8314Z" fill="#99BD3D"/>
<path d="M70.5798 31.0316C71.712 31.0316 72.6298 30.1138 72.6298 28.9816C72.6298 27.8495 71.712 26.9316 70.5798 26.9316C69.4476 26.9316 68.5298 27.8495 68.5298 28.9816C68.5298 30.1138 69.4476 31.0316 70.5798 31.0316Z" fill="#99BD3D"/>
<path d="M28.8601 24.7816C29.9922 24.7816 30.9101 23.8638 30.9101 22.7316C30.9101 21.5995 29.9922 20.6816 28.8601 20.6816C27.7279 20.6816 26.8101 21.5995 26.8101 22.7316C26.8101 23.8638 27.7279 24.7816 28.8601 24.7816Z" fill="#99BD3D"/>
<path d="M21.9499 16.0014C23.0821 16.0014 23.9999 15.0836 23.9999 13.9514C23.9999 12.8192 23.0821 11.9014 21.9499 11.9014C20.8177 11.9014 19.8999 12.8192 19.8999 13.9514C19.8999 15.0836 20.8177 16.0014 21.9499 16.0014Z" fill="#99BD3D"/>
<path d="M61.28 43.9813C62.4122 43.9813 63.33 43.0635 63.33 41.9313C63.33 40.7992 62.4122 39.8813 61.28 39.8813C60.1478 39.8813 59.23 40.7992 59.23 41.9313C59.23 43.0635 60.1478 43.9813 61.28 43.9813Z" fill="#99BD3D"/>
<path d="M42.7199 22.1815C43.8521 22.1815 44.7699 21.2637 44.7699 20.1315C44.7699 18.9994 43.8521 18.0815 42.7199 18.0815C41.5877 18.0815 40.6699 18.9994 40.6699 20.1315C40.6699 21.2637 41.5877 22.1815 42.7199 22.1815Z" fill="#99BD3D"/>
<path d="M65.3698 13.9115C66.502 13.9115 67.4198 12.9937 67.4198 11.8615C67.4198 10.7293 66.502 9.81152 65.3698 9.81152C64.2376 9.81152 63.3198 10.7293 63.3198 11.8615C63.3198 12.9937 64.2376 13.9115 65.3698 13.9115Z" fill="#99BD3D"/>
<path d="M38.57 33.0814C39.7022 33.0814 40.62 32.1636 40.62 31.0314C40.62 29.8993 39.7022 28.9814 38.57 28.9814C37.4378 28.9814 36.52 29.8993 36.52 31.0314C36.52 32.1636 37.4378 33.0814 38.57 33.0814Z" fill="#99BD3D"/>
<path d="M61.28 24.7816C62.4122 24.7816 63.33 23.8638 63.33 22.7316C63.33 21.5995 62.4122 20.6816 61.28 20.6816C60.1478 20.6816 59.23 21.5995 59.23 22.7316C59.23 23.8638 60.1478 24.7816 61.28 24.7816Z" fill="#99BD3D"/>
<path d="M36.5202 26.8314C37.6524 26.8314 38.5702 25.9136 38.5702 24.7814C38.5702 23.6493 37.6524 22.7314 36.5202 22.7314C35.388 22.7314 34.4702 23.6493 34.4702 24.7814C34.4702 25.9136 35.388 26.8314 36.5202 26.8314Z" fill="#99BD3D"/>
<path d="M51.0798 26.8314C52.212 26.8314 53.1298 25.9136 53.1298 24.7814C53.1298 23.6493 52.212 22.7314 51.0798 22.7314C49.9476 22.7314 49.0298 23.6493 49.0298 24.7814C49.0298 25.9136 49.9476 26.8314 51.0798 26.8314Z" fill="#99BD3D"/>
<path d="M53.1398 37.1718C54.272 37.1718 55.1898 36.254 55.1898 35.1218C55.1898 33.9896 54.272 33.0718 53.1398 33.0718C52.0077 33.0718 51.0898 33.9896 51.0898 35.1218C51.0898 36.254 52.0077 37.1718 53.1398 37.1718Z" fill="#99BD3D"/>
</svg>
