<svg width="66" height="66" viewBox="0 0 66 66" fill="none" xmlns="http://www.w3.org/2000/svg">
<path d="M30.0402 51.2067C28.8207 51.2053 27.6518 50.7197 26.7902 49.8567L17.5602 40.5767C17.1354 40.1506 16.7986 39.6449 16.5692 39.0886C16.3398 38.5324 16.2222 37.9364 16.2231 37.3346C16.2241 36.7329 16.3435 36.1373 16.5746 35.5817C16.8058 35.0261 17.1441 34.5215 17.5702 34.0967C17.9963 33.6719 18.502 33.3351 19.0582 33.1057C19.6145 32.8763 20.2105 32.7587 20.8123 32.7597C21.414 32.7606 22.0096 32.88 22.5652 33.1111C23.1208 33.3423 23.6254 33.6806 24.0502 34.1067L28.9602 39.0367L37.4402 23.5267C38.0875 22.5948 39.057 21.9357 40.1617 21.6765C41.2663 21.4174 42.4278 21.5765 43.422 22.1234C44.4162 22.6702 45.1727 23.5658 45.5454 24.6375C45.9181 25.7092 45.8806 26.881 45.4402 27.9267L34.0402 48.8167C33.6975 49.4426 33.2135 49.9801 32.6268 50.3863C32.0401 50.7925 31.3667 51.0563 30.6602 51.1567C30.4548 51.1869 30.2477 51.2036 30.0402 51.2067Z" fill="#99BD3D"/>
<path d="M30.14 64.5266C46.2336 64.5266 59.28 51.4802 59.28 35.3866C59.28 19.293 46.2336 6.24658 30.14 6.24658C14.0464 6.24658 1 19.293 1 35.3866C1 51.4802 14.0464 64.5266 30.14 64.5266Z" stroke="#616161" stroke-width="1.5" stroke-miterlimit="10"/>
<path d="M30.04 51.1667C28.8205 51.1652 27.6515 50.6797 26.79 49.8167L17.56 40.5267C17.1179 40.1045 16.7648 39.5982 16.5215 39.0375C16.2782 38.4768 16.1496 37.873 16.1433 37.2618C16.137 36.6506 16.2531 36.0444 16.4847 35.4787C16.7163 34.9131 17.0588 34.3996 17.492 33.9684C17.9252 33.5372 18.4404 33.197 19.0071 32.968C19.5738 32.739 20.1806 32.6257 20.7917 32.6349C21.4029 32.6441 22.006 32.7755 22.5656 33.0214C23.1252 33.2673 23.6299 33.6227 24.05 34.0667L28.96 38.9967L37.43 23.4867C38.0773 22.5548 39.0468 21.8956 40.1514 21.6365C41.2561 21.3773 42.4176 21.5365 43.4118 22.0833C44.406 22.6301 45.1624 23.5258 45.5351 24.5975C45.9078 25.6692 45.8704 26.841 45.43 27.8867L34.04 48.7767C33.6973 49.4026 33.2133 49.94 32.6266 50.3462C32.0398 50.7524 31.3665 51.0162 30.66 51.1167C30.4546 51.1469 30.2475 51.1636 30.04 51.1667Z" stroke="#616161" stroke-width="1.5" stroke-miterlimit="10"/>
<path d="M8.20996 16.2068L17.91 6.81677C23.2134 2.84547 29.7115 0.799339 36.3335 1.01553C42.9555 1.23172 49.3063 3.69734 54.3394 8.00611C59.3725 12.3149 62.7876 18.2097 64.0219 24.7192C65.2563 31.2287 64.2363 37.9646 61.13 43.8168L52.13 54.4768" stroke="#616161" stroke-width="1.5" stroke-miterlimit="10"/>
</svg>
