<svg width="66" height="59" viewBox="0 0 66 59" fill="none" xmlns="http://www.w3.org/2000/svg">
<path d="M28.98 33.2998L46.99 15.2798V23.0298L33.02 37.0498L28.98 33.2998Z" fill="#99BD3D"/>
<path d="M17.05 49.5298C21.4738 49.5298 25.06 45.9436 25.06 41.5198C25.06 37.096 21.4738 33.5098 17.05 33.5098C12.6262 33.5098 9.04004 37.096 9.04004 41.5198C9.04004 45.9436 12.6262 49.5298 17.05 49.5298Z" stroke="#616161" stroke-width="1.5" stroke-linecap="round" stroke-linejoin="round"/>
<path d="M47 18.7298V15.2798L29 33.2798L33 37.0298L47 23.0298V18.7298Z" stroke="#616161" stroke-width="1.5" stroke-linecap="round" stroke-linejoin="round"/>
<path d="M43.0599 1L18.6299 25.42C18.1699 25.42 17.5199 25.42 17.3499 25.42C14.1141 25.42 10.951 26.3802 8.26118 28.179C5.57137 29.9778 3.47579 32.5342 2.23978 35.5247C1.00377 38.5152 0.682914 41.8052 1.31785 44.9782C1.95278 48.1511 3.51494 51.0643 5.80653 53.3489C8.09812 55.6335 11.0161 57.1867 14.191 57.8119C17.3658 58.4371 20.6548 58.1062 23.6415 56.861C26.6282 55.6159 29.1783 53.5125 30.9688 50.8172C32.7593 48.1218 33.7098 44.9558 33.6999 41.72C33.6145 40.1625 33.3869 38.6161 33.0199 37.1L29.0199 33.35L47.0199 15.35V18.8H52.1899V13.5H58.0499V1H43.0499H43.0599Z" stroke="#616161" stroke-width="1.5" stroke-linecap="round" stroke-linejoin="round"/>
<path d="M17.05 49.5298C21.4738 49.5298 25.06 45.9436 25.06 41.5198C25.06 37.096 21.4738 33.5098 17.05 33.5098C12.6262 33.5098 9.04004 37.096 9.04004 41.5198C9.04004 45.9436 12.6262 49.5298 17.05 49.5298Z" stroke="#616161" stroke-width="1.5" stroke-linecap="round" stroke-linejoin="round"/>
<path d="M39.5 37.0998L53.5 23.0998V18.7998" stroke="#616161" stroke-width="1.5" stroke-linecap="round" stroke-linejoin="round"/>
<path d="M53.5 18.73H58.67V13.43H64.5V1H49.5" stroke="#616161" stroke-width="1.5" stroke-linecap="round" stroke-linejoin="round"/>
<path d="M15.5 58.1001H23.81C25.9605 58.1014 28.0901 57.6785 30.0769 56.8555C32.0637 56.0326 33.8686 54.8258 35.3883 53.3042C36.908 51.7827 38.1126 49.9763 38.9331 47.9885C39.7536 46.0007 40.1739 43.8706 40.17 41.7201C40.0879 40.1629 39.8636 38.6165 39.5 37.1001H33.02" stroke="#616161" stroke-width="1.5" stroke-linecap="round" stroke-linejoin="round"/>
<path d="M19.2799 49.2201C17.606 48.7441 16.1329 47.7354 15.0841 46.3467C14.0352 44.9581 13.4678 43.2653 13.4678 41.5251C13.4678 39.7848 14.0352 38.0921 15.0841 36.7034C16.1329 35.3148 17.606 34.306 19.2799 33.8301" stroke="#616161" stroke-width="1.5" stroke-linecap="round" stroke-linejoin="round"/>
<path d="M55.3001 18.73H48.8301" stroke="#616161" stroke-width="1.5" stroke-linecap="round" stroke-linejoin="round"/>
<path d="M53.7 23.1001H47.23" stroke="#616161" stroke-width="1.5" stroke-linecap="round" stroke-linejoin="round"/>
</svg>
