<svg width="67" height="66" viewBox="0 0 67 66" fill="none" xmlns="http://www.w3.org/2000/svg">
<path d="M43.8 48.9598C48.406 48.9598 52.14 45.2258 52.14 40.6198C52.14 36.0137 48.406 32.2798 43.8 32.2798C39.1939 32.2798 35.46 36.0137 35.46 40.6198C35.46 45.2258 39.1939 48.9598 43.8 48.9598Z" fill="#99BD3D"/>
<path d="M36.67 50.7798H1V7.83984H59.77V50.7798H50.93" stroke="#616161" stroke-width="1.5" stroke-linejoin="round"/>
<path d="M1 7.84L7.42999 1H66.2V43.94L59.77 50.78" stroke="#616161" stroke-width="1.5" stroke-linejoin="round"/>
<path d="M43.8 48.9598C48.406 48.9598 52.14 45.2258 52.14 40.6198C52.14 36.0137 48.406 32.2798 43.8 32.2798C39.1939 32.2798 35.46 36.0137 35.46 40.6198C35.46 45.2258 39.1939 48.9598 43.8 48.9598Z" stroke="#616161" stroke-width="1.5" stroke-linejoin="round"/>
<path d="M14.9399 14.9702H45.8299" stroke="#616161" stroke-width="1.5" stroke-linejoin="round"/>
<path d="M20.8799 22.4702H39.8899" stroke="#616161" stroke-width="1.5" stroke-linejoin="round"/>
<path d="M36.6699 44.9302V64.5902L43.7999 60.0202L50.9299 64.5902V44.9302" stroke="#616161" stroke-width="1.5" stroke-linejoin="round"/>
<path d="M8.33984 42.8599H19.0398" stroke="#616161" stroke-width="1.5" stroke-linejoin="round"/>
</svg>
