<svg width="70" height="66" viewBox="0 0 70 66" fill="none" xmlns="http://www.w3.org/2000/svg">
<path d="M32.5002 34.37C34.0466 34.37 35.3002 33.1164 35.3002 31.57C35.3002 30.0236 34.0466 28.77 32.5002 28.77C30.9538 28.77 29.7002 30.0236 29.7002 31.57C29.7002 33.1164 30.9538 34.37 32.5002 34.37Z" fill="#99BD3D"/>
<path d="M42.2102 34.37C43.7565 34.37 45.0102 33.1164 45.0102 31.57C45.0102 30.0236 43.7565 28.77 42.2102 28.77C40.6638 28.77 39.4102 30.0236 39.4102 31.57C39.4102 33.1164 40.6638 34.37 42.2102 34.37Z" fill="#99BD3D"/>
<path d="M51.9201 34.37C53.4665 34.37 54.7201 33.1164 54.7201 31.57C54.7201 30.0236 53.4665 28.77 51.9201 28.77C50.3737 28.77 49.1201 30.0236 49.1201 31.57C49.1201 33.1164 50.3737 34.37 51.9201 34.37Z" fill="#99BD3D"/>
<path d="M32.5002 43.87C34.0466 43.87 35.3002 42.6164 35.3002 41.07C35.3002 39.5236 34.0466 38.27 32.5002 38.27C30.9538 38.27 29.7002 39.5236 29.7002 41.07C29.7002 42.6164 30.9538 43.87 32.5002 43.87Z" fill="#99BD3D"/>
<path d="M22.78 43.87C24.3264 43.87 25.58 42.6164 25.58 41.07C25.58 39.5236 24.3264 38.27 22.78 38.27C21.2336 38.27 19.98 39.5236 19.98 41.07C19.98 42.6164 21.2336 43.87 22.78 43.87Z" fill="#99BD3D"/>
<path d="M13.07 43.87C14.6164 43.87 15.87 42.6164 15.87 41.07C15.87 39.5236 14.6164 38.27 13.07 38.27C11.5236 38.27 10.27 39.5236 10.27 41.07C10.27 42.6164 11.5236 43.87 13.07 43.87Z" fill="#99BD3D"/>
<path d="M42.2102 43.87C43.7565 43.87 45.0102 42.6164 45.0102 41.07C45.0102 39.5236 43.7565 38.27 42.2102 38.27C40.6638 38.27 39.4102 39.5236 39.4102 41.07C39.4102 42.6164 40.6638 43.87 42.2102 43.87Z" fill="#99BD3D"/>
<path d="M32.5002 53.87C34.0466 53.87 35.3002 52.6164 35.3002 51.07C35.3002 49.5236 34.0466 48.27 32.5002 48.27C30.9538 48.27 29.7002 49.5236 29.7002 51.07C29.7002 52.6164 30.9538 53.87 32.5002 53.87Z" fill="#99BD3D"/>
<path d="M22.78 53.87C24.3264 53.87 25.58 52.6164 25.58 51.07C25.58 49.5236 24.3264 48.27 22.78 48.27C21.2336 48.27 19.98 49.5236 19.98 51.07C19.98 52.6164 21.2336 53.87 22.78 53.87Z" fill="#99BD3D"/>
<path d="M13.07 53.87C14.6164 53.87 15.87 52.6164 15.87 51.07C15.87 49.5236 14.6164 48.27 13.07 48.27C11.5236 48.27 10.27 49.5236 10.27 51.07C10.27 52.6164 11.5236 53.87 13.07 53.87Z" fill="#99BD3D"/>
<path d="M42.2102 53.87C43.7565 53.87 45.0102 52.6164 45.0102 51.07C45.0102 49.5236 43.7565 48.27 42.2102 48.27C40.6638 48.27 39.4102 49.5236 39.4102 51.07C39.4102 52.6164 40.6638 53.87 42.2102 53.87Z" fill="#99BD3D"/>
<path d="M51.9201 43.87C53.4665 43.87 54.7201 42.6164 54.7201 41.07C54.7201 39.5236 53.4665 38.27 51.9201 38.27C50.3737 38.27 49.1201 39.5236 49.1201 41.07C49.1201 42.6164 50.3737 43.87 51.9201 43.87Z" fill="#99BD3D"/>
<path d="M62.87 14.1802H1V65.0402H62.87V14.1802Z" stroke="#616161" stroke-width="1.5" stroke-linecap="round" stroke-linejoin="round"/>
<path d="M58.3398 8.7002H68.9798V59.5702L62.8698 65.0402" stroke="#616161" stroke-width="1.5" stroke-linecap="round" stroke-linejoin="round"/>
<path d="M29.3901 8.7002H41.1901" stroke="#616161" stroke-width="1.5" stroke-linecap="round" stroke-linejoin="round"/>
<path d="M1 14.1802L7.11 8.7002H11.57" stroke="#616161" stroke-width="1.5" stroke-linecap="round" stroke-linejoin="round"/>
<path d="M1 59.5601H62.87" stroke="#616161" stroke-width="1.5" stroke-linecap="round" stroke-linejoin="round"/>
<path d="M13.07 43.89C14.6274 43.89 15.89 42.6274 15.89 41.07C15.89 39.5126 14.6274 38.25 13.07 38.25C11.5126 38.25 10.25 39.5126 10.25 41.07C10.25 42.6274 11.5126 43.89 13.07 43.89Z" stroke="#616161" stroke-width="1.5" stroke-linecap="round" stroke-linejoin="round"/>
<path d="M32.5002 43.89C34.0576 43.89 35.3202 42.6274 35.3202 41.07C35.3202 39.5126 34.0576 38.25 32.5002 38.25C30.9427 38.25 29.6802 39.5126 29.6802 41.07C29.6802 42.6274 30.9427 43.89 32.5002 43.89Z" stroke="#616161" stroke-width="1.5" stroke-linecap="round" stroke-linejoin="round"/>
<path d="M42.2101 43.89C43.7676 43.89 45.0301 42.6274 45.0301 41.07C45.0301 39.5126 43.7676 38.25 42.2101 38.25C40.6527 38.25 39.3901 39.5126 39.3901 41.07C39.3901 42.6274 40.6527 43.89 42.2101 43.89Z" stroke="#616161" stroke-width="1.5" stroke-linecap="round" stroke-linejoin="round"/>
<path d="M51.9201 43.89C53.4775 43.89 54.7401 42.6274 54.7401 41.07C54.7401 39.5126 53.4775 38.25 51.9201 38.25C50.3627 38.25 49.1001 39.5126 49.1001 41.07C49.1001 42.6274 50.3627 43.89 51.9201 43.89Z" stroke="#616161" stroke-width="1.5" stroke-linecap="round" stroke-linejoin="round"/>
<path d="M22.78 43.89C24.3374 43.89 25.6 42.6274 25.6 41.07C25.6 39.5126 24.3374 38.25 22.78 38.25C21.2225 38.25 19.96 39.5126 19.96 41.07C19.96 42.6274 21.2225 43.89 22.78 43.89Z" stroke="#616161" stroke-width="1.5" stroke-linecap="round" stroke-linejoin="round"/>
<path d="M32.5002 34.39C34.0576 34.39 35.3202 33.1274 35.3202 31.57C35.3202 30.0126 34.0576 28.75 32.5002 28.75C30.9427 28.75 29.6802 30.0126 29.6802 31.57C29.6802 33.1274 30.9427 34.39 32.5002 34.39Z" stroke="#616161" stroke-width="1.5" stroke-linecap="round" stroke-linejoin="round"/>
<path d="M9.25977 13.8301C9.25977 12.4456 9.67031 11.0922 10.4395 9.94109C11.2087 8.78995 12.3019 7.89274 13.581 7.36292C14.8601 6.83311 16.2675 6.69449 17.6254 6.96458C18.9833 7.23468 20.2306 7.90137 21.2095 8.88033C22.1885 9.8593 22.8552 11.1066 23.1253 12.4644C23.3954 13.8223 23.2567 15.2298 22.7269 16.5089C22.1971 17.7879 21.2999 18.8812 20.1488 19.6504C18.9976 20.4195 17.6442 20.8301 16.2598 20.8301" stroke="#616161" stroke-width="1.5" stroke-linecap="round" stroke-linejoin="round"/>
<path d="M21.7798 1C23.6363 1 25.4168 1.7375 26.7295 3.05025C28.0423 4.36301 28.7798 6.14348 28.7798 8" stroke="#616161" stroke-width="1.5" stroke-linecap="round" stroke-linejoin="round"/>
<path d="M39.3901 13.8301C39.3901 12.4456 39.8007 11.0922 40.5698 9.94109C41.339 8.78995 42.4323 7.89274 43.7113 7.36292C44.9904 6.83311 46.3979 6.69449 47.7558 6.96458C49.1136 7.23468 50.3609 7.90137 51.3399 8.88033C52.3188 9.8593 52.9855 11.1066 53.2556 12.4644C53.5257 13.8223 53.3871 15.2298 52.8573 16.5089C52.3275 17.7879 51.4303 18.8812 50.2791 19.6504C49.128 20.4195 47.7746 20.8301 46.3901 20.8301" stroke="#616161" stroke-width="1.5" stroke-linecap="round" stroke-linejoin="round"/>
<path d="M42.2101 34.39C43.7676 34.39 45.0301 33.1274 45.0301 31.57C45.0301 30.0126 43.7676 28.75 42.2101 28.75C40.6527 28.75 39.3901 30.0126 39.3901 31.57C39.3901 33.1274 40.6527 34.39 42.2101 34.39Z" stroke="#616161" stroke-width="1.5" stroke-linecap="round" stroke-linejoin="round"/>
<path d="M51.9201 34.39C53.4775 34.39 54.7401 33.1274 54.7401 31.57C54.7401 30.0126 53.4775 28.75 51.9201 28.75C50.3627 28.75 49.1001 30.0126 49.1001 31.57C49.1001 33.1274 50.3627 34.39 51.9201 34.39Z" stroke="#616161" stroke-width="1.5" stroke-linecap="round" stroke-linejoin="round"/>
<path d="M13.07 53.89C14.6274 53.89 15.89 52.6274 15.89 51.07C15.89 49.5126 14.6274 48.25 13.07 48.25C11.5126 48.25 10.25 49.5126 10.25 51.07C10.25 52.6274 11.5126 53.89 13.07 53.89Z" stroke="#616161" stroke-width="1.5" stroke-linecap="round" stroke-linejoin="round"/>
<path d="M32.5002 53.89C34.0576 53.89 35.3202 52.6274 35.3202 51.07C35.3202 49.5126 34.0576 48.25 32.5002 48.25C30.9427 48.25 29.6802 49.5126 29.6802 51.07C29.6802 52.6274 30.9427 53.89 32.5002 53.89Z" stroke="#616161" stroke-width="1.5" stroke-linecap="round" stroke-linejoin="round"/>
<path d="M42.2101 53.89C43.7676 53.89 45.0301 52.6274 45.0301 51.07C45.0301 49.5126 43.7676 48.25 42.2101 48.25C40.6527 48.25 39.3901 49.5126 39.3901 51.07C39.3901 52.6274 40.6527 53.89 42.2101 53.89Z" stroke="#616161" stroke-width="1.5" stroke-linecap="round" stroke-linejoin="round"/>
<path d="M22.78 53.89C24.3374 53.89 25.6 52.6274 25.6 51.07C25.6 49.5126 24.3374 48.25 22.78 48.25C21.2225 48.25 19.96 49.5126 19.96 51.07C19.96 52.6274 21.2225 53.89 22.78 53.89Z" stroke="#616161" stroke-width="1.5" stroke-linecap="round" stroke-linejoin="round"/>
<path d="M63.25 14.1199L68.36 9.6499" stroke="#616161" stroke-width="1.5" stroke-linecap="round" stroke-linejoin="round"/>
<path d="M63.25 59.1699L68.36 54.6899" stroke="#616161" stroke-width="1.5" stroke-linecap="round" stroke-linejoin="round"/>
<path d="M11.5698 8.65L21.7798 1" stroke="#616161" stroke-width="1.5" stroke-linecap="round" stroke-linejoin="round"/>
<path d="M23.7402 14.1899L29.3902 8.6499" stroke="#616161" stroke-width="1.5" stroke-linecap="round" stroke-linejoin="round"/>
<path d="M9.60986 14.1899L16.2499 8.6499H20.8799" stroke="#616161" stroke-width="1.5" stroke-linecap="round" stroke-linejoin="round"/>
<path d="M51.4102 1C53.2667 1 55.0471 1.7375 56.3599 3.05025C57.6726 4.36301 58.4102 6.14348 58.4102 8" stroke="#616161" stroke-width="1.5" stroke-linecap="round" stroke-linejoin="round"/>
<path d="M41.1899 8.65L51.41 1" stroke="#616161" stroke-width="1.5" stroke-linecap="round" stroke-linejoin="round"/>
<path d="M53.3599 14.1899L59.0099 8.6499" stroke="#616161" stroke-width="1.5" stroke-linecap="round" stroke-linejoin="round"/>
<path d="M39.23 14.1899L45.87 8.6499" stroke="#616161" stroke-width="1.5" stroke-linecap="round" stroke-linejoin="round"/>
</svg>
