<svg width="500" height="708" viewBox="0 0 500 708" fill="none" xmlns="http://www.w3.org/2000/svg">
<rect y="104" width="500" height="500" fill="#99BD3D"/>
<path d="M385.073 322.904V394.99H201.637V322.904H385.073ZM74.9148 427.605H164.451C165.975 451.98 173.592 470.331 187.303 482.657C201.014 494.983 221.303 501.146 248.171 501.146C270.053 501.146 287.434 496.022 300.314 485.773C313.194 475.525 322.473 460.775 328.152 441.524C333.83 422.135 336.669 398.937 336.669 371.931V337.446C336.669 309.608 333.414 286.134 326.905 267.021C320.534 247.771 310.771 233.229 297.614 223.396C284.595 213.562 267.907 208.646 247.548 208.646C227.466 208.646 211.539 211.693 199.767 217.787C187.995 223.88 179.409 232.605 174.007 243.962C168.606 255.18 165.282 268.752 164.036 284.679H74.4993C77.2692 256.703 85.3018 231.498 98.5973 209.061C112.031 186.487 131.074 168.621 155.726 155.464C180.517 142.307 211.124 135.729 247.548 135.729C283.695 135.729 315.064 143.969 341.655 160.45C368.246 176.931 388.812 200.267 403.354 230.459C417.896 260.651 425.167 296.382 425.167 337.653V372.138C425.167 413.41 418.034 449.072 403.77 479.125C389.643 509.04 369.354 532.169 342.901 548.511C316.449 564.715 284.872 572.817 248.171 572.817C213.132 572.817 183.079 566.723 158.011 554.536C132.944 542.21 113.347 525.175 99.2205 503.431C85.0941 481.549 76.9922 456.274 74.9148 427.605Z" fill="white"/>
</svg>
