<?xml version="1.0" standalone="no"?>
<!DOCTYPE svg PUBLIC "-//W3C//DTD SVG 20010904//EN"
 "http://www.w3.org/TR/2001/REC-SVG-20010904/DTD/svg10.dtd">
<svg version="1.0" xmlns="http://www.w3.org/2000/svg"
 width="708.000000pt" height="708.000000pt" viewBox="0 0 708.000000 708.000000"
 preserveAspectRatio="xMidYMid meet">
<metadata>
Created by potrace 1.14, written by Peter Selinger 2001-2017
</metadata>
<g transform="translate(0.000000,708.000000) scale(0.100000,-0.100000)"
fill="#000000" stroke="none">
<path d="M1040 3540 l0 -2500 2500 0 2500 0 0 2500 0 2500 -2500 0 -2500 0 0
-2500z m2715 2170 c853 -98 1418 -725 1520 -1688 20 -188 20 -796 0 -984 -91
-858 -530 -1435 -1235 -1623 -170 -45 -296 -59 -525 -59 -224 0 -332 10 -514
51 -685 150 -1132 643 -1206 1331 l-7 62 451 0 451 0 0 -42 c1 -125 76 -332
159 -436 87 -109 232 -190 409 -230 120 -27 420 -23 526 6 283 78 466 285 551
622 25 96 48 234 60 348 l6 62 -671 0 -670 0 0 360 0 360 670 0 670 0 0 43 c0
122 -35 330 -82 482 -95 314 -276 510 -545 587 -70 21 -99 23 -278 23 -212 -1
-302 -14 -418 -64 -218 -94 -342 -289 -388 -608 l-11 -83 -444 0 -444 0 0 33
c0 96 60 339 122 495 75 188 205 387 335 514 132 129 348 265 528 333 94 35
280 80 390 94 50 6 101 13 115 15 57 8 392 5 475 -4z"/>
</g>
</svg>
