<svg xmlns="http://www.w3.org/2000/svg" width="251" height="23" fill="none"><path fill="#99BD3D" d="M9.33.64c2.08 0 3.94.47 5.58 1.41a9.94 9.94 0 0 1 3.9 3.87c.94 1.64 1.41 3.5 1.41 5.58s-.47 3.95-1.41 5.61a10.21 10.21 0 0 1-3.9 3.87c-1.64.92-3.5 1.38-5.58 1.38-1.86 0-3.54-.32-5.04-.96a9.725 9.725 0 0 1-3.72-2.79l3.09-2.88c1.48 1.66 3.29 2.49 5.43 2.49 1.54 0 2.84-.45 3.9-1.35 1.08-.9 1.78-2.11 2.1-3.63H6.57V9.52h8.46c-.34-1.44-1.04-2.59-2.1-3.45-1.06-.86-2.34-1.29-3.84-1.29-2.14 0-3.95.83-5.43 2.49L.57 4.39c1-1.22 2.24-2.15 3.72-2.79C5.79.96 7.47.64 9.33.64Zm24.326 12.9h-3.36V22h-4.83V1h4.83v8.49h3.48L39.296 1h5.13l-6.87 10.14L44.636 22h-5.52l-5.46-8.46Zm24.689 8.82c-2.18 0-4.15-.47-5.91-1.41-1.74-.94-3.11-2.23-4.11-3.87-.98-1.66-1.47-3.52-1.47-5.58s.49-3.91 1.47-5.55c1-1.66 2.37-2.96 4.11-3.9 1.76-.94 3.73-1.41 5.91-1.41s4.14.47 5.88 1.41c1.74.94 3.11 2.24 4.11 3.9 1 1.64 1.5 3.49 1.5 5.55 0 2.06-.5 3.92-1.5 5.58-1 1.64-2.37 2.93-4.11 3.87-1.74.94-3.7 1.41-5.88 1.41Zm0-4.14c1.24 0 2.36-.28 3.36-.84 1-.58 1.78-1.38 2.34-2.4.58-1.02.87-2.18.87-3.48 0-1.3-.29-2.46-.87-3.48a5.93 5.93 0 0 0-2.34-2.37c-1-.58-2.12-.87-3.36-.87-1.24 0-2.36.29-3.36.87-1 .56-1.79 1.35-2.37 2.37-.56 1.02-.84 2.18-.84 3.48 0 1.3.28 2.46.84 3.48a6.351 6.351 0 0 0 2.37 2.4c1 .56 2.12.84 3.36.84Z"/><path fill="#fff" d="M83.209 13.54h-3.36V22h-4.83V1h4.83v8.49h3.48L88.849 1h5.13l-6.87 10.14L94.189 22h-5.52l-5.46-8.46Zm24.689 8.82c-2.18 0-4.15-.47-5.91-1.41-1.74-.94-3.11-2.23-4.11-3.87-.98-1.66-1.47-3.52-1.47-5.58s.49-3.91 1.47-5.55c1-1.66 2.37-2.96 4.11-3.9 1.76-.94 3.73-1.41 5.91-1.41s4.14.47 5.88 1.41c1.74.94 3.11 2.24 4.11 3.9 1 1.64 1.5 3.49 1.5 5.55 0 2.06-.5 3.92-1.5 5.58-1 1.64-2.37 2.93-4.11 3.87-1.74.94-3.7 1.41-5.88 1.41Zm0-4.14c1.24 0 2.36-.28 3.36-.84 1-.58 1.78-1.38 2.34-2.4.58-1.02.87-2.18.87-3.48 0-1.3-.29-2.46-.87-3.48a5.93 5.93 0 0 0-2.34-2.37c-1-.58-2.12-.87-3.36-.87-1.24 0-2.36.29-3.36.87-1 .56-1.79 1.35-2.37 2.37-.56 1.02-.84 2.18-.84 3.48 0 1.3.28 2.46.84 3.48a6.351 6.351 0 0 0 2.37 2.4c1 .56 2.12.84 3.36.84ZM143.741 22l-.03-12.57-6.18 10.35h-2.16l-6.18-10.11V22h-4.56V1h4.02l7.86 13.05L144.251 1h4.02l.03 21h-4.56Zm36.147-10.56c0 2.78-.95 4.97-2.85 6.57-1.88 1.58-4.59 2.46-8.13 2.64v2.28h-4.47v-2.31c-3.56-.2-6.29-1.09-8.19-2.67-1.88-1.6-2.82-3.77-2.82-6.51 0-2.76.94-4.92 2.82-6.48 1.9-1.58 4.63-2.48 8.19-2.7V.1h4.47v2.13c3.54.2 6.25 1.1 8.13 2.7 1.9 1.6 2.85 3.77 2.85 6.51Zm-10.98 5.4c2.12-.2 3.7-.74 4.74-1.62 1.04-.9 1.56-2.17 1.56-3.81 0-3.2-2.1-4.98-6.3-5.34v10.77Zm-10.77-5.4c0 3.16 2.1 4.96 6.3 5.4V6.07c-2.14.2-3.73.74-4.77 1.62-1.02.86-1.53 2.11-1.53 3.75Zm36.906 10.92c-2.18 0-4.15-.47-5.91-1.41-1.74-.94-3.11-2.23-4.11-3.87-.98-1.66-1.47-3.52-1.47-5.58s.49-3.91 1.47-5.55c1-1.66 2.37-2.96 4.11-3.9 1.76-.94 3.73-1.41 5.91-1.41s4.14.47 5.88 1.41c1.74.94 3.11 2.24 4.11 3.9 1 1.64 1.5 3.49 1.5 5.55 0 2.06-.5 3.92-1.5 5.58-1 1.64-2.37 2.93-4.11 3.87-1.74.94-3.7 1.41-5.88 1.41Zm0-4.14c1.24 0 2.36-.28 3.36-.84 1-.58 1.78-1.38 2.34-2.4.58-1.02.87-2.18.87-3.48 0-1.3-.29-2.46-.87-3.48a5.93 5.93 0 0 0-2.34-2.37c-1-.58-2.12-.87-3.36-.87-1.24 0-2.36.29-3.36.87-1 .56-1.79 1.35-2.37 2.37-.56 1.02-.84 2.18-.84 3.48 0 1.3.28 2.46.84 3.48a6.351 6.351 0 0 0 2.37 2.4c1 .56 2.12.84 3.36.84ZM220.868 1c1.86 0 3.47.31 4.83.93 1.38.62 2.44 1.5 3.18 2.64.74 1.14 1.11 2.49 1.11 4.05 0 1.54-.37 2.89-1.11 4.05-.74 1.14-1.8 2.02-3.18 2.64-1.36.6-2.97.9-4.83.9h-4.23V22h-4.86V1h9.09Zm-.27 11.25c1.46 0 2.57-.31 3.33-.93.76-.64 1.14-1.54 1.14-2.7 0-1.18-.38-2.08-1.14-2.7-.76-.64-1.87-.96-3.33-.96h-3.96v7.29h3.96Zm29.56-7.29h-6.72V22h-4.8V4.96h-6.69V1h18.21v3.96Z"/></svg>